HIERARCHY
ROOT pelvis
{
  OFFSET 0 100 0
  CHANNELS 6 Xposition Yposition Zposition Zrotation Xrotation Yrotation
  JOINT pelvis_right_femur
  {
    OFFSET -10.78128 -3.44521 -0.5502486
    CHANNELS 3 Zrotation Xrotation Yrotation
    JOINT right_femur_tibia
    {
      OFFSET -0.8047443 -44.0398 -0.1307829
      CHANNELS 3 Zrotation Xrotation Yrotation
      JOINT right_tibia_foot
      {
        OFFSET 3.006224 -47.83518 -5
        CHANNELS 3 Zrotation Xrotation Yrotation
        End Site
        {
          OFFSET 0 -5 15
        }
      }
    }
  }
  JOINT pelvis_left_femur
  {
    OFFSET 10.78128 -3.44521 -0.5502486
    CHANNELS 3 Zrotation Xrotation Yrotation
    JOINT left_femur_tibia
    {
      OFFSET 0.8047443 -44.0398 -0.1307829
      CHANNELS 3 Zrotation Xrotation Yrotation
      JOINT left_tibia_foot
      {
        OFFSET -4.370144 -48.10324 -4.275266
        CHANNELS 3 Zrotation Xrotation Yrotation
        End Site
        {
          OFFSET 0 -5 15
        }
      }
    }
  }
  JOINT pelvis_spine1
  {
    OFFSET 0 6.468898 -3.129235
    CHANNELS 3 Zrotation Xrotation Yrotation
    JOINT spine1
    {
      OFFSET 0 23.15396 4.99043
      CHANNELS 3 Zrotation Xrotation Yrotation
      JOINT spine2
      {
        OFFSET 0 20.79997 -5.064912
        CHANNELS 3 Zrotation Xrotation Yrotation
        JOINT neck
        {
          OFFSET 0 14.38658 9.616178
          CHANNELS 3 Zrotation Xrotation Yrotation
          End Site
          {
            OFFSET 0 20 0
          }
        }
      }
      JOINT right_manubrium
      {
        OFFSET -5.722621 16.35077 3.967754
        CHANNELS 3 Zrotation Xrotation Yrotation
        JOINT right_clavicle
        {
          OFFSET -13.16364 1.694482 -4.693211
          CHANNELS 3 Zrotation Xrotation Yrotation
          JOINT right_humerus
          {
            OFFSET -28.5034 -0.3100689 -2.792744
            CHANNELS 3 Zrotation Xrotation Yrotation
            JOINT right_radius
            {
              OFFSET -25.15693 0.02248979 -1.271978
              CHANNELS 3 Zrotation Xrotation Yrotation
              End Site
              {
                OFFSET -15 0 0
              }
            }
          }
        }
      }
      JOINT left_manubrium
      {
        OFFSET 5.722621 16.35077 3.967754
        CHANNELS 3 Zrotation Xrotation Yrotation
        JOINT left_clavicle
        {
          OFFSET 13.16364 1.694482 -4.693211
          CHANNELS 3 Zrotation Xrotation Yrotation
          JOINT left_humerus
          {
            OFFSET 29.39168 -1.063119 -2.237045
            CHANNELS 3 Zrotation Xrotation Yrotation
            JOINT left_radius
            {
              OFFSET 24.59957 -0.9528479 0.9047498
              CHANNELS 3 Zrotation Xrotation Yrotation
              End Site
              {
                OFFSET 15 -0 -0
              }
            }
          }
        }
      }
    }
  }
}
MOTION
Frames: 15
Frame Time: 0.0416666666667
986.3185 103.9201 2932.074 4.492673 -6.05071 32.85757 5.150114 2.97114 5.238162 -0 13.69221 -0 -1.737743 -10.6316 -5.193529 -1.50678 -11.22168 -5.773911 -0 58.2616 -0 -8.466999 -6.142575 16.22158 -0.9260784 1.209648 6.759601 0.9814596 10.89274 -5.064495 2.421473 22.88907 4.816911 2.45552 -17.09166 6.482043 4.168826 -16.72888 12.11757 83.88774 28.63707 -13.89525 -0 0 13.81715 -20.87248 15.43271 11.11835 3.944492 -18.8566 -2.893819 -89.592 24.15553 16.85861 0 0 -17.69745 -1.027958 9.562488 15.05981
989.4661 104.052 2936.69 4.531737 -5.601413 32.05391 4.641491 6.915506 5.068132 -0 11.52292 -0 -1.098212 -11.99463 -3.769765 -0.489601 -18.18444 -4.480854 -0 50.96773 -0 -7.985712 -6.793336 17.05017 -1.197095 1.470264 7.675223 0.5211108 10.94436 -4.449084 2.243432 22.51448 4.911499 2.583516 -17.19391 6.253035 3.755017 -18.51769 12.21919 81.76474 28.07253 -10.97581 -0 0 17.27632 -22.16385 14.93002 12.21374 4.389487 -18.60355 -2.561848 -90.53995 23.53793 19.05739 0 0 -17.46283 -1.104912 8.683727 15.04433
992.7007 103.563 2941.283 4.077197 -5.071795 31.31967 4.418999 9.946847 4.773864 -0 10.385 -0 -0.7360648 -13.63994 -2.58056 0.8109653 -23.05734 -3.228191 -0 41.00174 -0 -7.312595 -7.262562 17.77408 -1.177958 1.530247 7.969848 0.182399 10.63879 -4.046237 2.030955 22.22417 5.002908 2.532202 -17.35949 6.1436 3.184695 -19.96946 12.11116 80.03536 27.61644 -8.27107 -0 0 20.1047 -23.04814 14.20002 13.19046 4.614498 -18.11866 -2.338582 -91.10985 23.26894 20.6524 0 0 -16.9455 -1.112794 8.068152 15.09058
996.1103 102.6399 2945.99 3.351892 -4.562326 30.60084 4.257217 12.54834 4.582911 -0 10.60211 -0 -0.4278664 -15.32069 -1.683247 1.97593 -26.04458 -2.31144 -0 31.28826 -0 -6.643699 -7.288413 18.26747 -0.9979216 1.333844 7.962054 -0.01925202 10.21406 -3.843604 1.835394 21.95759 5.102282 2.375795 -17.5636 6.155285 2.649336 -21.05163 11.90392 78.73613 27.20166 -6.044995 -0 0 22.25084 -23.74721 13.53434 14.0857 4.586778 -17.48976 -2.181057 -91.51528 23.18982 21.93872 0 0 -16.00797 -1.170406 7.659903 15.30233
999.7839 101.5291 2950.914 2.683792 -4.082238 29.87204 3.861917 14.87742 4.60483 -0 12.16025 -0 0.09335133 -16.32807 -1.04269 2.575163 -27.6377 -1.961094 -0 23.94307 -0 -6.101072 -7.053121 18.4676 -0.9121004 0.9000629 8.000432 -0.1526017 9.887462 -3.759815 1.724717 21.64772 5.2171 2.24891 -17.76158 6.258887 2.300997 -21.7837 11.68352 77.85844 26.82264 -4.477703 -0 0 23.82101 -24.5043 13.16586 14.88503 4.41657 -16.87183 -2.065101 -91.87066 23.12672 23.1146 0 0 -14.84021 -1.336571 7.354285 15.69295
1003.787 100.4784 2956.115 2.369203 -3.637155 29.17098 3.060077 16.82451 4.804061 -0 15.14695 -0 0.9401279 -15.94196 -0.6470683 2.32508 -28.16631 -2.270057 -0 19.84383 -0 -5.704202 -6.87277 18.40018 -1.125111 0.3117185 8.249281 -0.2998451 9.761512 -3.703728 1.72982 21.30195 5.341742 2.247443 -17.88743 6.403043 2.208239 -22.16891 11.49243 77.4202 26.52064 -3.648561 -0 0 24.86298 -25.37456 13.11083 15.507 4.20548 -16.35839 -2.01764 -92.18603 22.99005 24.21437 0 0 -13.67075 -1.61396 7.060753 16.2149
1008.13 99.71857 2961.594 2.576408 -3.273349 28.60762 1.8709 18.1158 5.045477 -0 19.89699 -0 2.016133 -13.77416 -0.5636818 1.155125 -27.66295 -3.190663 -0 18.7968 -0 -5.403971 -6.982964 18.13012 -1.702709 -0.3158084 8.650946 -0.509867 9.827866 -3.625588 1.817885 20.99846 5.474348 2.392117 -17.88047 6.531462 2.371308 -22.18959 11.34409 77.4699 26.37132 -3.56615 -0 0 25.30348 -26.20976 13.20952 15.83997 3.987496 -15.96978 -2.091856 -92.39531 22.79024 25.13848 0 0 -12.65302 -1.962211 6.733245 16.79001
1012.747 99.45419 2967.277 3.284272 -3.062568 28.34496 0.5031204 18.34006 5.163325 -0 26.79108 -0 3.077022 -9.93001 -0.9067955 -0.7463065 -25.93396 -4.524501 -0 19.86784 -0 -5.109654 -7.469625 17.71981 -2.555344 -0.8549607 8.985234 -0.7776941 10.01694 -3.552119 1.901102 20.83638 5.637057 2.632547 -17.72228 6.614328 2.757742 -21.83278 11.2431 78.04809 26.50407 -4.202852 -0 0 24.98754 -26.77766 13.29518 15.80297 3.743362 -15.70981 -2.327591 -92.37467 22.60785 25.69316 0 0 -11.90215 -2.300137 6.389912 17.32404
1017.486 99.82863 2973.007 4.264915 -3.067523 28.54321 -0.6995255 16.95943 5.043001 -0 35.78489 -0 3.855781 -5.068332 -1.753623 -2.924568 -22.74102 -5.933641 -0 21.71914 -0 -4.719145 -8.297428 17.22725 -3.458656 -1.172443 8.968255 -1.041181 10.25172 -3.593668 1.876498 20.87745 5.880991 2.865582 -17.4506 6.685694 3.324658 -21.12104 11.19549 79.13976 27.09301 -5.50463 -0 0 23.78753 -26.93602 13.3779 15.41965 3.450849 -15.62161 -2.720312 -91.96487 22.54042 25.61774 0 0 -11.55887 -2.517631 6.126318 17.71254
1022.136 100.8501 2978.563 5.141404 -3.322397 29.27067 -1.380725 13.42814 4.698001 -0 45.80602 -0 4.185527 -0.3637283 -3.074569 -4.776589 -18.03994 -7.05811 -0 22.97405 -0 -4.183953 -9.392681 16.72227 -4.111224 -1.150777 8.378016 -1.198645 10.48007 -3.903348 1.690341 21.10361 6.258188 2.964744 -17.13197 6.856549 4.003874 -20.1357 11.1979 80.64425 28.25374 -7.368901 -0 0 21.764 -26.76535 13.72368 14.8609 3.148114 -15.79702 -3.207812 -91.02539 22.63867 24.62522 0 0 -11.79797 -2.514236 6.102783 17.84734
1026.498 102.3155 2983.727 5.55471 -3.816569 30.43047 -1.357658 7.523303 4.280497 -0 54.41619 -0 4.072203 2.780018 -4.711356 -5.816391 -12.17658 -7.720278 -0 22.65937 -0 -3.593202 -10.73071 16.27037 -4.259344 -0.7544347 7.191953 -1.154814 10.66897 -4.57988 1.4017 21.4156 6.753936 2.83222 -16.80926 7.25794 4.650378 -19.01567 11.2067 82.3813 29.84744 -9.611778 -0 0 19.29067 -26.54109 14.69004 14.38489 2.97401 -16.31871 -3.68644 -89.5296 22.86053 22.50455 0 0 -12.76093 -2.254794 6.466038 17.63617
1030.471 103.8153 2988.39 5.396635 -4.437437 31.78528 -0.7753542 -0.2197181 3.948696 -0 58.45971 -0 3.683107 3.403573 -6.399702 -5.951292 -5.874209 -8.02169 -0 20.61255 -0 -3.177516 -12.35137 15.85739 -3.88002 -0.1055175 5.660561 -0.8796562 10.76557 -5.559072 1.179286 21.692 7.228657 2.466103 -16.47707 7.909346 5.016905 -17.90786 11.12408 84.13929 31.35056 -11.97895 -0 0 16.95272 -26.48014 16.29817 14.15605 3.120917 -17.16276 -4.061726 -87.64547 23.09285 19.28793 0 0 -14.45843 -1.795098 7.200826 17.03962
1034.085 104.8773 2992.638 4.911587 -4.928666 33.09723 -0.07940623 -8.432447 3.672014 -0 55.93622 -0 3.234063 1.702717 -7.844143 -5.542137 0.07403525 -8.186567 -0 17.53158 -0 -3.152274 -14.25167 15.33665 -3.270871 0.5430606 4.202937 -0.4311736 10.67889 -6.603211 1.179837 21.87258 7.471769 1.986344 -16.11972 8.626141 4.862662 -16.88102 10.857 85.75308 32.06071 -14.24002 -0 0 15.15386 -26.43472 17.94284 14.05759 3.683823 -18.16343 -4.302616 -85.68155 23.23752 15.34481 0 0 -16.73146 -1.232994 8.042091 16.09448
1037.464 105.1814 2996.717 4.496449 -5.021992 34.25293 0.2580135 -15.54818 3.246523 -0 47.65271 -0 2.852007 -1.04567 -8.851058 -5.128439 5.195192 -8.328911 -0 14.52202 -0 -3.536332 -16.24954 14.53637 -2.857071 0.9638012 3.14631 0.08721024 10.34279 -7.445715 1.404919 21.97469 7.369622 1.567835 -15.76214 9.11943 4.171253 -15.89615 10.42333 87.16038 31.62686 -16.29646 -0 0 13.80842 -25.96645 18.78801 13.74618 4.547264 -19.11914 -4.441994 -83.89455 23.25755 11.24543 0 0 -19.31706 -0.632989 8.627624 14.89817
1040.76 104.6828 3000.904 4.374183 -4.664689 35.24925 0.09512506 -20.655 2.570576 -0 36.72477 -0 2.538413 -3.444544 -9.426243 -5.025722 9.432908 -8.427669 -0 12.50995 -0 -4.168283 -18.01399 13.45956 -2.852139 1.08164 2.548365 0.5879532 9.802839 -7.961616 1.713781 22.0333 7.003124 1.330957 -15.46672 9.222908 3.223542 -14.89426 9.967174 88.36995 30.35994 -18.16769 -0 0 12.53371 -24.85449 18.51906 13.0033 5.464935 -19.93021 -4.518895 -82.37557 23.15193 7.503336 0 0 -21.95162 -0.02333151 8.790814 13.593
